<mxfile host="app.diagrams.net" agent="Mozilla/5.0 (Windows NT 10.0; Win64; x64) AppleWebKit/537.36 (KHTML, like Gecko) Chrome/136.0.0.0 Safari/537.36" version="27.0.6">
  <diagram name="第 1 页" id="GutAC2JC0oOGJUkNslf_">
    <mxGraphModel dx="1295" dy="715" grid="1" gridSize="10" guides="1" tooltips="1" connect="1" arrows="1" fold="1" page="1" pageScale="1" pageWidth="1600" pageHeight="900" math="0" shadow="0">
      <root>
        <mxCell id="0" />
        <mxCell id="1" parent="0" />
        <mxCell id="n6GFVxHEQArfP3diSg0K-1" value="" style="verticalLabelPosition=bottom;shadow=0;dashed=0;align=center;html=1;verticalAlign=top;shape=mxgraph.electrical.abstract.integrator;" vertex="1" parent="1">
          <mxGeometry x="370" y="200" width="50" height="50" as="geometry" />
        </mxCell>
        <mxCell id="n6GFVxHEQArfP3diSg0K-2" value="" style="verticalLabelPosition=bottom;shadow=0;dashed=0;align=center;html=1;verticalAlign=top;shape=mxgraph.electrical.abstract.integrator;" vertex="1" parent="1">
          <mxGeometry x="590" y="200" width="50" height="50" as="geometry" />
        </mxCell>
        <mxCell id="n6GFVxHEQArfP3diSg0K-3" value="" style="verticalLabelPosition=bottom;shadow=0;dashed=0;align=center;html=1;verticalAlign=top;shape=mxgraph.electrical.abstract.quantizer;" vertex="1" parent="1">
          <mxGeometry x="710" y="202" width="52" height="46" as="geometry" />
        </mxCell>
        <mxCell id="n6GFVxHEQArfP3diSg0K-13" style="edgeStyle=orthogonalEdgeStyle;rounded=0;orthogonalLoop=1;jettySize=auto;html=1;startArrow=classic;startFill=1;endArrow=none;" edge="1" parent="1" source="n6GFVxHEQArfP3diSg0K-4">
          <mxGeometry relative="1" as="geometry">
            <mxPoint x="505" y="320" as="targetPoint" />
          </mxGeometry>
        </mxCell>
        <mxCell id="n6GFVxHEQArfP3diSg0K-4" value="" style="verticalLabelPosition=bottom;shadow=0;dashed=0;align=center;html=1;verticalAlign=top;shape=mxgraph.electrical.abstract.sum;" vertex="1" parent="1">
          <mxGeometry x="480" y="200" width="50" height="50" as="geometry" />
        </mxCell>
        <mxCell id="n6GFVxHEQArfP3diSg0K-21" style="edgeStyle=orthogonalEdgeStyle;rounded=0;orthogonalLoop=1;jettySize=auto;html=1;endSize=4;startArrow=classic;startFill=1;endArrow=none;sourcePerimeterSpacing=0;targetPerimeterSpacing=0;entryX=0;entryY=0.5;entryDx=0;entryDy=0;entryPerimeter=0;" edge="1" parent="1" target="n6GFVxHEQArfP3diSg0K-6">
          <mxGeometry relative="1" as="geometry">
            <mxPoint x="810" y="230" as="targetPoint" />
            <mxPoint x="771" y="315" as="sourcePoint" />
          </mxGeometry>
        </mxCell>
        <mxCell id="n6GFVxHEQArfP3diSg0K-5" value="&lt;font style=&quot;font-size: 16px;&quot; face=&quot;Times New Roman&quot;&gt;1-Bit DAC&lt;/font&gt;" style="rounded=0;whiteSpace=wrap;html=1;" vertex="1" parent="1">
          <mxGeometry x="701" y="281" width="70" height="70" as="geometry" />
        </mxCell>
        <mxCell id="n6GFVxHEQArfP3diSg0K-32" style="edgeStyle=orthogonalEdgeStyle;rounded=0;orthogonalLoop=1;jettySize=auto;html=1;entryX=0;entryY=0.5;entryDx=0;entryDy=0;" edge="1" parent="1" source="n6GFVxHEQArfP3diSg0K-6" target="n6GFVxHEQArfP3diSg0K-30">
          <mxGeometry relative="1" as="geometry" />
        </mxCell>
        <mxCell id="n6GFVxHEQArfP3diSg0K-6" value="" style="verticalLabelPosition=bottom;shadow=0;dashed=0;align=center;html=1;verticalAlign=top;shape=mxgraph.electrical.logic_gates.lowpass_filter;" vertex="1" parent="1">
          <mxGeometry x="850" y="202" width="52" height="46" as="geometry" />
        </mxCell>
        <mxCell id="n6GFVxHEQArfP3diSg0K-17" style="edgeStyle=orthogonalEdgeStyle;rounded=0;orthogonalLoop=1;jettySize=auto;html=1;" edge="1" parent="1" source="n6GFVxHEQArfP3diSg0K-8" target="n6GFVxHEQArfP3diSg0K-1">
          <mxGeometry relative="1" as="geometry" />
        </mxCell>
        <mxCell id="n6GFVxHEQArfP3diSg0K-8" value="" style="verticalLabelPosition=bottom;shadow=0;dashed=0;align=center;html=1;verticalAlign=top;shape=mxgraph.electrical.abstract.sum;" vertex="1" parent="1">
          <mxGeometry x="260" y="200" width="50" height="50" as="geometry" />
        </mxCell>
        <mxCell id="n6GFVxHEQArfP3diSg0K-9" value="" style="endArrow=classic;html=1;rounded=0;exitX=0.846;exitY=0.562;exitDx=0;exitDy=0;exitPerimeter=0;" edge="1" parent="1" source="n6GFVxHEQArfP3diSg0K-27">
          <mxGeometry width="50" height="50" relative="1" as="geometry">
            <mxPoint x="210" y="240" as="sourcePoint" />
            <mxPoint x="260" y="224.5" as="targetPoint" />
          </mxGeometry>
        </mxCell>
        <mxCell id="n6GFVxHEQArfP3diSg0K-10" style="edgeStyle=orthogonalEdgeStyle;rounded=0;orthogonalLoop=1;jettySize=auto;html=1;entryX=0.5;entryY=1;entryDx=0;entryDy=0;entryPerimeter=0;" edge="1" parent="1" source="n6GFVxHEQArfP3diSg0K-5" target="n6GFVxHEQArfP3diSg0K-8">
          <mxGeometry relative="1" as="geometry">
            <Array as="points">
              <mxPoint x="285" y="320" />
            </Array>
          </mxGeometry>
        </mxCell>
        <mxCell id="n6GFVxHEQArfP3diSg0K-16" style="edgeStyle=orthogonalEdgeStyle;rounded=0;orthogonalLoop=1;jettySize=auto;html=1;entryX=0;entryY=0.5;entryDx=0;entryDy=0;entryPerimeter=0;" edge="1" parent="1" source="n6GFVxHEQArfP3diSg0K-3" target="n6GFVxHEQArfP3diSg0K-6">
          <mxGeometry relative="1" as="geometry" />
        </mxCell>
        <mxCell id="n6GFVxHEQArfP3diSg0K-18" style="edgeStyle=orthogonalEdgeStyle;rounded=0;orthogonalLoop=1;jettySize=auto;html=1;entryX=0;entryY=0.5;entryDx=0;entryDy=0;entryPerimeter=0;" edge="1" parent="1" source="n6GFVxHEQArfP3diSg0K-1" target="n6GFVxHEQArfP3diSg0K-4">
          <mxGeometry relative="1" as="geometry" />
        </mxCell>
        <mxCell id="n6GFVxHEQArfP3diSg0K-19" style="edgeStyle=orthogonalEdgeStyle;rounded=0;orthogonalLoop=1;jettySize=auto;html=1;entryX=0;entryY=0.5;entryDx=0;entryDy=0;entryPerimeter=0;" edge="1" parent="1" source="n6GFVxHEQArfP3diSg0K-4" target="n6GFVxHEQArfP3diSg0K-2">
          <mxGeometry relative="1" as="geometry" />
        </mxCell>
        <mxCell id="n6GFVxHEQArfP3diSg0K-20" style="edgeStyle=orthogonalEdgeStyle;rounded=0;orthogonalLoop=1;jettySize=auto;html=1;entryX=0;entryY=0.5;entryDx=0;entryDy=0;entryPerimeter=0;" edge="1" parent="1" source="n6GFVxHEQArfP3diSg0K-2" target="n6GFVxHEQArfP3diSg0K-3">
          <mxGeometry relative="1" as="geometry" />
        </mxCell>
        <mxCell id="n6GFVxHEQArfP3diSg0K-22" value="+" style="text;html=1;align=center;verticalAlign=middle;whiteSpace=wrap;rounded=0;fontFamily=Times New Roman;fontSize=16;" vertex="1" parent="1">
          <mxGeometry x="210" y="200" width="60" height="30" as="geometry" />
        </mxCell>
        <mxCell id="n6GFVxHEQArfP3diSg0K-23" value="+" style="text;html=1;align=center;verticalAlign=middle;whiteSpace=wrap;rounded=0;fontFamily=Times New Roman;fontSize=16;" vertex="1" parent="1">
          <mxGeometry x="430" y="200" width="60" height="30" as="geometry" />
        </mxCell>
        <mxCell id="n6GFVxHEQArfP3diSg0K-24" value="－" style="text;html=1;align=center;verticalAlign=middle;whiteSpace=wrap;rounded=0;fontFamily=Times New Roman;fontSize=16;" vertex="1" parent="1">
          <mxGeometry x="270" y="248" width="60" height="30" as="geometry" />
        </mxCell>
        <mxCell id="n6GFVxHEQArfP3diSg0K-25" value="－" style="text;html=1;align=center;verticalAlign=middle;whiteSpace=wrap;rounded=0;fontFamily=Times New Roman;fontSize=16;" vertex="1" parent="1">
          <mxGeometry x="490" y="248" width="60" height="30" as="geometry" />
        </mxCell>
        <mxCell id="n6GFVxHEQArfP3diSg0K-27" value="" style="ellipse;whiteSpace=wrap;html=1;aspect=fixed;" vertex="1" parent="1">
          <mxGeometry x="190" y="215" width="15" height="15" as="geometry" />
        </mxCell>
        <mxCell id="n6GFVxHEQArfP3diSg0K-28" value="IN" style="text;html=1;align=center;verticalAlign=middle;whiteSpace=wrap;rounded=0;fontFamily=Times New Roman;fontSize=16;" vertex="1" parent="1">
          <mxGeometry x="177.5" y="229.5" width="40" height="30" as="geometry" />
        </mxCell>
        <mxCell id="n6GFVxHEQArfP3diSg0K-29" value="Low-Pass Filter" style="text;html=1;align=center;verticalAlign=middle;whiteSpace=wrap;rounded=0;fontFamily=Times New Roman;fontSize=16;" vertex="1" parent="1">
          <mxGeometry x="841" y="250" width="70" height="39" as="geometry" />
        </mxCell>
        <mxCell id="n6GFVxHEQArfP3diSg0K-30" value="" style="ellipse;whiteSpace=wrap;html=1;aspect=fixed;" vertex="1" parent="1">
          <mxGeometry x="940" y="220.5" width="9" height="9" as="geometry" />
        </mxCell>
        <mxCell id="n6GFVxHEQArfP3diSg0K-33" value="OUT" style="text;html=1;align=center;verticalAlign=middle;whiteSpace=wrap;rounded=0;fontFamily=Times New Roman;fontSize=16;" vertex="1" parent="1">
          <mxGeometry x="924.5" y="230" width="40" height="30" as="geometry" />
        </mxCell>
        <mxCell id="n6GFVxHEQArfP3diSg0K-34" value="" style="rounded=0;whiteSpace=wrap;html=1;fillColor=none;" vertex="1" parent="1">
          <mxGeometry x="230" y="130" width="600" height="230" as="geometry" />
        </mxCell>
        <mxCell id="n6GFVxHEQArfP3diSg0K-35" value="&amp;nbsp;&amp;nbsp;" style="text;html=1;align=center;verticalAlign=middle;whiteSpace=wrap;rounded=0;" vertex="1" parent="1">
          <mxGeometry x="280" y="120" width="60" height="30" as="geometry" />
        </mxCell>
      </root>
    </mxGraphModel>
  </diagram>
</mxfile>
